<svg width="24" height="24" viewBox="0 0 24 24" fill="none" xmlns="http://www.w3.org/2000/svg">
<path d="M8.73301 0.203015C9.16243 0.475606 9.29767 1.05805 9.03521 1.50395C8.84468 1.82751 8.89243 2.24446 9.15064 2.51262L9.2696 2.63611C9.98492 3.37883 10.2486 4.46993 9.956 5.47534C9.81031 5.97561 9.30168 6.25856 8.81989 6.10735C8.33816 5.95613 8.06566 5.428 8.21129 4.92774C8.30957 4.59013 8.221 4.22376 7.98082 3.97436L7.86189 3.85086C7.00826 2.96449 6.85045 1.58632 7.48012 0.516813C7.74264 0.0709264 8.30356 -0.0695771 8.73301 0.203015Z" fill="#FF8A00"/>
<path d="M17.8498 3.46131C18.3432 3.56379 18.6633 4.06232 18.5646 4.57479L18.3896 5.48314C18.1489 6.73325 17.2815 7.75355 16.1167 8.15671C15.5724 8.34509 15.1671 8.82185 15.0546 9.406L14.8796 10.3143C14.7809 10.8268 14.3009 11.1591 13.8073 11.0567C13.3137 10.9542 12.9937 10.4556 13.0923 9.94318L13.2673 9.03484C13.5081 7.78472 14.3756 6.76442 15.5404 6.36126C16.0846 6.17289 16.49 5.69613 16.6025 5.11197L16.7773 4.20363C16.8761 3.69116 17.3562 3.35882 17.8498 3.46131Z" fill="#FF8A00"/>
<path d="M22.3691 14.612C21.9296 14.4125 21.4186 14.4963 21.0596 14.8267C20.0763 15.7321 18.6454 15.8827 17.5072 15.2003L17.2485 15.0453C16.8127 14.784 16.6633 14.2052 16.915 13.7527C17.1666 13.3001 17.724 13.145 18.1598 13.4063L18.4185 13.5614C18.8772 13.8363 19.454 13.7757 19.8504 13.4107C20.7408 12.5909 22.0089 12.383 23.0993 12.878L23.4535 13.0388C23.9146 13.2482 24.1251 13.806 23.9234 14.285C23.7218 14.7638 23.1845 14.9822 22.7233 14.7729L22.3691 14.612Z" fill="#FF8A00"/>
<path d="M4.77366 2.47617C5.02818 2.21188 5.44084 2.21188 5.69537 2.47617C5.94989 2.74046 5.94989 3.16895 5.69537 3.43324C5.44084 3.69753 5.02818 3.69753 4.77366 3.43324C4.51913 3.16895 4.51913 2.74046 4.77366 2.47617Z" fill="#FF8A00"/>
<path d="M12.0495 6.53415C11.7949 6.26987 11.3823 6.26987 11.1277 6.53415C10.8731 6.79843 10.8731 7.22693 11.1277 7.49122C11.3823 7.75551 11.7949 7.75551 12.0495 7.49122C12.3039 7.22693 12.3039 6.79843 12.0495 6.53415Z" fill="#FF8A00"/>
<path d="M17.2034 10.3193C17.4579 10.055 17.8706 10.055 18.1251 10.3193C18.3796 10.5835 18.3796 11.0121 18.1251 11.2763C17.8706 11.5407 17.4579 11.5407 17.2034 11.2763C16.9488 11.0121 16.9488 10.5835 17.2034 10.3193Z" fill="#FF8A00"/>
<path d="M20.4348 16.825C20.1804 16.5608 19.7676 16.5608 19.5132 16.825C19.2586 17.0893 19.2586 17.5178 19.5132 17.7821C19.7676 18.0463 20.1804 18.0463 20.4348 17.7821C20.6894 17.5178 20.6894 17.0893 20.4348 16.825Z" fill="#FF8A00"/>
<path d="M5.43448 23.0428C2.68648 23.9835 1.23863 24.3772 0.437698 23.5456C-0.449173 22.6246 0.110863 20.8801 1.23095 17.391L3.28383 10.996C4.05179 8.60374 4.50293 7.19837 5.25575 6.6283L5.24942 6.66086C5.24065 6.70617 5.22798 6.77237 5.21201 6.85755C5.18009 7.02785 5.135 7.27415 5.08175 7.58096C4.97532 8.19417 4.83596 9.05112 4.70402 10.0275C4.4426 11.962 4.20048 14.4337 4.32521 16.4087C4.40069 17.6039 4.64015 19.0864 4.85386 20.2449C4.96171 20.8296 5.06497 21.342 5.1413 21.7085C5.17949 21.8918 5.21101 22.039 5.23308 22.1408L5.25877 22.2582L5.43448 23.0428Z" fill="#FF8A00"/>
<path d="M12.1994 20.7024L12.5236 20.5902C15.316 19.6236 16.7121 19.1404 16.9721 17.9971C17.2321 16.8536 16.1914 15.773 14.1102 13.6119L12.0575 11.4806L12.0518 11.4993C12.028 11.5772 11.9935 11.6921 11.9519 11.8364C11.8686 12.1256 11.7574 12.5305 11.6463 12.992C11.4191 13.9368 11.2129 15.0384 11.2129 15.8686C11.2129 16.6986 11.4191 17.8002 11.6463 18.7451C11.7574 19.2066 11.8686 19.6115 11.9519 19.9007C11.9935 20.0451 12.028 20.1599 12.0518 20.2378C12.0637 20.2768 12.0729 20.3066 12.079 20.326L12.0858 20.3476L12.0874 20.3524L12.1994 20.7024Z" fill="#FF8A00"/>
<path d="M7.04838 6.9722L7.10995 6.66272C7.85448 7.11614 8.7363 8.03175 10.0044 9.34849L10.6153 9.98292L10.3569 10.7905L10.3458 10.8257C10.3384 10.8491 10.3278 10.8832 10.3146 10.9266C10.288 11.0134 10.2505 11.1383 10.2058 11.2935C10.1164 11.6036 9.99732 12.0373 9.878 12.5334C9.64458 13.5039 9.39026 14.7937 9.39026 15.8684C9.39026 16.9432 9.64458 18.233 9.878 19.2035C9.99732 19.6996 10.1164 20.1333 10.2058 20.4433C10.2505 20.5986 10.288 20.7234 10.3146 20.8103C10.3278 20.8537 10.3384 20.8876 10.3458 20.9112L10.4704 21.3007L7.17141 22.4426L7.04161 21.8633L7.03543 21.8354L7.01123 21.7248C6.99019 21.6278 6.9598 21.4859 6.92281 21.3083C6.84879 20.9529 6.74857 20.4555 6.64402 19.8887C6.4329 18.7444 6.21173 17.3571 6.14401 16.2848C6.03216 14.5136 6.25067 12.2023 6.50902 10.2904C6.63697 9.34361 6.77227 8.51151 6.87556 7.91648C6.92715 7.61916 6.97067 7.38153 7.00115 7.21894C7.01637 7.13766 7.02834 7.07518 7.03642 7.03342L7.04555 6.98656L7.04777 6.97524L7.04838 6.9722Z" fill="#FF8A00"/>
<path d="M14.526 0.292935C14.7103 0.267549 15.0463 0.255361 15.3134 0.532634C15.5803 0.809919 15.5687 1.15877 15.5442 1.35013C15.521 1.531 15.4617 1.74767 15.4051 1.9541L15.3616 2.11307L15.4402 2.24235C15.5466 2.41718 15.6608 2.60501 15.7308 2.77207C15.8096 2.96053 15.8993 3.27864 15.7302 3.61285C15.5643 3.94068 15.2672 4.04857 15.0781 4.09319C14.9062 4.13379 14.691 4.15114 14.4865 4.16765L14.3316 4.1802L14.3187 4.18126L14.207 4.32202C14.0739 4.4902 13.9356 4.66475 13.8052 4.78852C13.6672 4.91965 13.4077 5.12181 13.0466 5.07046C12.6731 5.01736 12.4794 4.73651 12.3856 4.56101C12.3008 4.4021 12.2264 4.19289 12.1572 3.99796L12.1083 3.8606L11.976 3.80986C11.7883 3.73794 11.5868 3.66077 11.4338 3.57263C11.2648 3.4753 10.9943 3.27421 10.9432 2.88636C10.8937 2.51133 11.0884 2.24199 11.2148 2.09864C11.334 1.96331 11.502 1.81971 11.664 1.68134L11.7996 1.56545L11.8005 1.55205L11.8126 1.39117C11.8285 1.17878 11.8453 0.955431 11.8844 0.776837C11.9273 0.580566 12.0312 0.272117 12.347 0.0998054C12.6689 -0.0758493 12.9752 0.0173528 13.1566 0.0992501C13.3176 0.171874 13.4984 0.290512 13.6668 0.400949L13.7914 0.482506L13.9443 0.437324C14.1432 0.378579 14.3519 0.31692 14.526 0.292935Z" fill="#FF8A00"/>
<path d="M23.2578 10.7422C23.8254 10.1528 24.0352 9.35938 23.7243 8.66051C23.4884 8.13038 23.0113 7.78557 22.4252 7.6557C22.3002 7.04719 21.9681 6.55162 21.4575 6.30675C20.7845 5.98394 20.0203 6.2018 19.4527 6.79118C19.1236 7.13295 18.9745 7.59096 18.9046 7.99883C18.8332 8.41608 18.8318 8.85713 18.8556 9.24352C18.8797 9.6337 18.931 9.99148 18.9758 10.2502C18.9983 10.3801 19.0194 10.4869 19.0351 10.5619C19.043 10.5997 19.0496 10.6294 19.0543 10.6505C19.1085 10.8777 19.2876 11.0911 19.5063 11.1472L19.5078 11.1476L19.5411 11.1558C19.5612 11.1607 19.59 11.1676 19.6263 11.1758C19.6987 11.1922 19.8013 11.2141 19.9266 11.2375C20.1757 11.2839 20.5203 11.3373 20.896 11.3622C21.2682 11.387 21.6929 11.3855 22.0947 11.3113C22.4875 11.2387 22.9286 11.0839 23.2578 10.7422Z" fill="#FF8A00"/>
</svg>
