<svg width="24" height="24" viewBox="0 0 24 24" fill="none" xmlns="http://www.w3.org/2000/svg">
<path d="M8.73326 0.203015C9.16267 0.475606 9.29791 1.05805 9.03545 1.50395C8.84492 1.82751 8.89268 2.24446 9.15088 2.51262L9.26984 2.63611C9.98517 3.37883 10.2488 4.46993 9.95625 5.47534C9.81056 5.97561 9.30192 6.25856 8.82014 6.10735C8.3384 5.95613 8.06591 5.428 8.21153 4.92774C8.30981 4.59013 8.22124 4.22376 7.98107 3.97436L7.86213 3.85086C7.00851 2.96449 6.85069 1.58632 7.48037 0.516813C7.74289 0.0709264 8.30381 -0.0695771 8.73326 0.203015Z" fill="white"/>
<path d="M17.8495 3.46143C18.343 3.56392 18.663 4.06244 18.5644 4.57491L18.3894 5.48326C18.1487 6.73337 17.2812 7.75368 16.1164 8.15683C15.5722 8.34521 15.1668 8.82198 15.0543 9.40612L14.8794 10.3144C14.7807 10.8269 14.3006 11.1593 13.807 11.0568C13.3135 10.9544 12.9934 10.4557 13.0921 9.9433L13.2671 9.03496C13.5079 7.78484 14.3753 6.76454 15.5401 6.36138C16.0844 6.17301 16.4897 5.69625 16.6022 5.11209L16.7771 4.20375C16.8759 3.69129 17.356 3.35894 17.8495 3.46143Z" fill="white"/>
<path d="M22.3694 14.6119C21.9299 14.4124 21.4188 14.4962 21.0599 14.8266C20.0765 15.732 18.6456 15.8825 17.5074 15.2002L17.2488 15.0452C16.8129 14.7839 16.6636 14.2051 16.9152 13.7525C17.1669 13.3 17.7242 13.1449 18.1601 13.4062L18.4188 13.5613C18.8775 13.8362 19.4543 13.7756 19.8506 13.4106C20.741 12.5908 22.0091 12.3828 23.0995 12.8779L23.4537 13.0387C23.9149 13.2481 24.1253 13.8059 23.9236 14.2848C23.722 14.7637 23.1847 14.9821 22.7236 14.7728L22.3694 14.6119Z" fill="white"/>
<path d="M4.7739 2.47605C5.02843 2.21176 5.44108 2.21176 5.69561 2.47605C5.95013 2.74034 5.95013 3.16883 5.69561 3.43312C5.44108 3.69741 5.02843 3.69741 4.7739 3.43312C4.51938 3.16883 4.51938 2.74034 4.7739 2.47605Z" fill="white"/>
<path d="M12.0492 6.53415C11.7947 6.26987 11.382 6.26987 11.1274 6.53415C10.8729 6.79843 10.8729 7.22693 11.1274 7.49122C11.382 7.75551 11.7947 7.75551 12.0492 7.49122C12.3037 7.22693 12.3037 6.79843 12.0492 6.53415Z" fill="white"/>
<path d="M17.2036 10.3193C17.4582 10.055 17.8708 10.055 18.1254 10.3193C18.3798 10.5835 18.3798 11.0121 18.1254 11.2763C17.8708 11.5407 17.4582 11.5407 17.2036 11.2763C16.9491 11.0121 16.9491 10.5835 17.2036 10.3193Z" fill="white"/>
<path d="M20.4348 16.8251C20.1804 16.5609 19.7676 16.5609 19.5132 16.8251C19.2586 17.0894 19.2586 17.5179 19.5132 17.7822C19.7676 18.0464 20.1804 18.0464 20.4348 17.7822C20.6894 17.5179 20.6894 17.0894 20.4348 16.8251Z" fill="white"/>
<path d="M5.43448 23.0429C2.68648 23.9836 1.23863 24.3773 0.437698 23.5457C-0.449173 22.6248 0.110863 20.8802 1.23095 17.3911L3.28383 10.9961C4.05179 8.60386 4.50293 7.19849 5.25575 6.62842L5.24942 6.66098C5.24065 6.70629 5.22798 6.77249 5.21201 6.85767C5.18009 7.02797 5.135 7.27427 5.08175 7.58108C4.97532 8.1943 4.83596 9.05125 4.70402 10.0277C4.4426 11.9621 4.20048 14.4338 4.32521 16.4088C4.40069 17.6041 4.64015 19.0866 4.85386 20.2451C4.96171 20.8297 5.06497 21.3421 5.1413 21.7086C5.17949 21.892 5.21101 22.0391 5.23308 22.1409L5.25877 22.2584L5.43448 23.0429Z" fill="white"/>
<path d="M12.1994 20.7023L12.5236 20.5901C15.316 19.6235 16.7121 19.1403 16.9721 17.9969C17.2321 16.8534 16.1914 15.7729 14.1102 13.6117L12.0575 11.4805L12.0518 11.4991C12.028 11.5771 11.9935 11.6919 11.9519 11.8363C11.8686 12.1255 11.7574 12.5303 11.6463 12.9919C11.4191 13.9366 11.2129 15.0382 11.2129 15.8684C11.2129 16.6985 11.4191 17.8001 11.6463 18.745C11.7574 19.2065 11.8686 19.6114 11.9519 19.9006C11.9935 20.0449 12.028 20.1597 12.0518 20.2377C12.0637 20.2767 12.0729 20.3065 12.079 20.3259L12.0858 20.3475L12.0874 20.3523L12.1994 20.7023Z" fill="white"/>
<path d="M7.04862 6.97208L7.11019 6.6626C7.85473 7.11602 8.73654 8.03162 10.0046 9.34837L10.6156 9.9828L10.3571 10.7903L10.3461 10.8255C10.3386 10.849 10.3281 10.8831 10.3148 10.9265C10.2882 11.0133 10.2508 11.1382 10.2061 11.2934C10.1166 11.6035 9.99756 12.0372 9.87824 12.5333C9.64482 13.5038 9.3905 14.7936 9.3905 15.8683C9.3905 16.943 9.64482 18.2329 9.87824 19.2034C9.99756 19.6995 10.1166 20.1331 10.2061 20.4431C10.2508 20.5985 10.2882 20.7232 10.3148 20.8102C10.3281 20.8536 10.3386 20.8875 10.3461 20.9111L10.4706 21.3006L7.17165 22.4424L7.04185 21.8632L7.03567 21.8353L7.01148 21.7247C6.99043 21.6276 6.96004 21.4858 6.92305 21.3082C6.84903 20.9527 6.74881 20.4554 6.64426 19.8886C6.43314 18.7443 6.21197 17.357 6.14425 16.2847C6.03241 14.5135 6.25091 12.2022 6.50927 10.2903C6.63722 9.34348 6.77252 8.51139 6.8758 7.91636C6.92739 7.61903 6.97092 7.3814 7.00139 7.21882C7.01662 7.13754 7.02859 7.07506 7.03667 7.0333L7.04579 6.98644L7.04801 6.97512L7.04862 6.97208Z" fill="white"/>
<path d="M14.5258 0.292935C14.7101 0.267549 15.0461 0.255361 15.3131 0.532634C15.5801 0.809919 15.5684 1.15877 15.544 1.35013C15.5208 1.531 15.4615 1.74767 15.4049 1.9541L15.3614 2.11307L15.44 2.24235C15.5463 2.41718 15.6605 2.60501 15.7305 2.77207C15.8094 2.96053 15.899 3.27864 15.7299 3.61285C15.564 3.94068 15.267 4.04857 15.0779 4.09319C14.906 4.13379 14.6908 4.15114 14.4863 4.16765L14.3313 4.1802L14.3185 4.18126L14.2068 4.32202C14.0736 4.4902 13.9353 4.66475 13.805 4.78852C13.6669 4.91965 13.4075 5.12181 13.0464 5.07046C12.6729 5.01736 12.4792 4.73651 12.3854 4.56101C12.3006 4.4021 12.2262 4.19289 12.1569 3.99796L12.1081 3.8606L11.9758 3.80986C11.788 3.73793 11.5866 3.66077 11.4336 3.57263C11.2646 3.4753 10.9941 3.27421 10.9429 2.88636C10.8935 2.51133 11.0881 2.24199 11.2145 2.09864C11.3337 1.96331 11.5018 1.81971 11.6637 1.68134L11.7993 1.56545L11.8003 1.55205L11.8123 1.39117C11.8282 1.17878 11.845 0.955431 11.8841 0.776837C11.927 0.580566 12.0309 0.272117 12.3467 0.0998054C12.6686 -0.0758493 12.9749 0.0173528 13.1563 0.0992501C13.3173 0.171874 13.4981 0.290512 13.6666 0.400949L13.7911 0.482506L13.9441 0.437324C14.143 0.378579 14.3516 0.31692 14.5258 0.292935Z" fill="white"/>
<path d="M23.2578 10.7421C23.8254 10.1526 24.0352 9.35926 23.7243 8.66039C23.4884 8.13026 23.0113 7.78545 22.4252 7.65558C22.3002 7.04707 21.9681 6.5515 21.4575 6.30663C20.7845 5.98382 20.0203 6.20168 19.4527 6.79106C19.1236 7.13283 18.9745 7.59084 18.9046 7.99871C18.8332 8.41596 18.8318 8.85701 18.8556 9.2434C18.8797 9.63358 18.931 9.99136 18.9758 10.2501C18.9983 10.38 19.0194 10.4867 19.0351 10.5618C19.043 10.5995 19.0496 10.6293 19.0543 10.6504C19.1085 10.8776 19.2876 11.091 19.5063 11.1471L19.5078 11.1475L19.5411 11.1557C19.5612 11.1606 19.59 11.1674 19.6263 11.1756C19.6987 11.192 19.8013 11.214 19.9266 11.2373C20.1757 11.2838 20.5203 11.3371 20.896 11.3621C21.2682 11.3868 21.6929 11.3853 22.0947 11.3111C22.4875 11.2386 22.9286 11.0838 23.2578 10.7421Z" fill="white"/>
</svg>
