<svg width="27" height="27" viewBox="0 0 27 27" fill="none" xmlns="http://www.w3.org/2000/svg">
<path d="M1 13.4988H18.5M18.5 13.4988L14.125 9.74878M18.5 13.4988L14.125 17.2488" stroke="white" stroke-width="1.875" stroke-linecap="round" stroke-linejoin="round"/>
<path d="M9.75122 7.25C9.76636 4.53121 9.88692 3.05882 10.8474 2.09835C11.9458 1 13.7135 1 17.249 1H18.499C22.0345 1 23.8024 1 24.9007 2.09835C25.999 3.1967 25.999 4.96446 25.999 8.5V18.5C25.999 22.0355 25.999 23.8032 24.9007 24.9016C23.8024 26 22.0345 26 18.499 26H17.249C13.7135 26 11.9458 26 10.8474 24.9016C9.88692 23.9411 9.76636 22.4687 9.75122 19.75" stroke="white" stroke-width="1.875" stroke-linecap="round"/>
</svg>
