<svg width="27" height="27" viewBox="0 0 27 27" fill="none" xmlns="http://www.w3.org/2000/svg">
<path d="M1 13.4985H18.5M18.5 13.4985L14.125 9.74854M18.5 13.4985L14.125 17.2485" stroke="#5B00CF" stroke-width="1.875" stroke-linecap="round" stroke-linejoin="round"/>
<path d="M9.75098 7.25C9.76611 4.53121 9.88668 3.05882 10.8472 2.09835C11.9455 1 13.7133 1 17.2488 1H18.4988C22.0343 1 23.8022 1 24.9004 2.09835C25.9988 3.1967 25.9988 4.96446 25.9988 8.5V18.5C25.9988 22.0355 25.9988 23.8032 24.9004 24.9016C23.8022 26 22.0343 26 18.4988 26H17.2488C13.7133 26 11.9455 26 10.8472 24.9016C9.88668 23.9411 9.76611 22.4687 9.75098 19.75" stroke="#5B00CF" stroke-width="1.875" stroke-linecap="round"/>
</svg>
