<svg width="18" height="24" viewBox="0 0 18 24" fill="none" xmlns="http://www.w3.org/2000/svg">
<path d="M1.87822 9.49722L5.32313 4.52559C7.54987 1.31193 8.66328 -0.294897 9.70211 0.0446549C10.7408 0.384219 10.7408 2.35499 10.7408 6.29654V6.66818C10.7408 8.08981 10.7408 8.80062 11.1667 9.24648L11.1892 9.26958C11.6243 9.70607 12.3178 9.70607 13.705 9.70607C16.2012 9.70607 17.4494 9.70607 17.8712 10.5136C17.8781 10.5269 17.8849 10.5404 17.8915 10.554C18.2898 11.3741 17.5671 12.417 16.1217 14.5028L12.6768 19.4744C10.45 22.688 9.33659 24.2949 8.29777 23.9553C7.25906 23.6157 7.25906 21.645 7.25906 17.7033L7.25917 17.3319C7.25917 15.9102 7.25917 15.1994 6.83325 14.7535L6.81075 14.7305C6.37571 14.294 5.68214 14.294 4.29497 14.294C1.79874 14.294 0.550634 14.294 0.128815 13.4864C0.121829 13.4731 0.115034 13.4597 0.108441 13.446C-0.289752 12.626 0.432902 11.5831 1.87822 9.49722Z" fill="#8800FF"/>
</svg>
