<svg width="33" height="28" viewBox="0 0 33 28" fill="none" xmlns="http://www.w3.org/2000/svg">
<path d="M30.1866 0.247192C30.1866 0.247192 33.2393 -0.964807 32.9849 1.97862C32.9002 3.19064 32.137 7.43263 31.5434 12.021L29.5082 25.6127C29.5082 25.6127 29.3387 27.6038 27.8123 27.9501C26.2859 28.2964 23.9964 26.7381 23.5723 26.3918C23.2331 26.1321 17.2125 22.2364 15.0925 20.3318C14.4989 19.8124 13.8205 18.7735 15.1773 17.5615L24.0811 8.9044C25.0987 7.86552 26.1163 5.44152 21.8763 8.38495L10.0046 16.6093C10.0046 16.6093 8.64781 17.4749 6.1039 16.6958L0.591974 14.9644C0.591974 14.9644 -1.44319 13.6658 2.03355 12.3672C10.5134 8.29831 20.9436 4.14288 30.1866 0.247192Z" fill="black"/>
</svg>
