<svg width="44" height="26" viewBox="0 0 44 26" fill="none" xmlns="http://www.w3.org/2000/svg">
<path d="M42.9912 1.76071C43.2986 0.744917 42.9912 0 41.5376 0H36.7222C35.497 0 34.937 0.64443 34.6296 1.35221C34.6296 1.35221 32.1813 7.29188 28.712 11.1432C27.5922 12.2638 27.0805 12.6177 26.4701 12.6177C26.1649 12.6177 25.7214 12.2638 25.7214 11.248V1.76071C25.7214 0.541758 25.3678 0 24.3468 0H16.7801C16.016 0 15.5549 0.563603 15.5549 1.10099C15.5549 2.25441 17.2896 2.52092 17.4674 5.77147V12.8231C17.4674 14.3675 17.1886 14.6493 16.5737 14.6493C14.9423 14.6493 10.9723 8.68778 8.61624 1.86338C8.15732 0.537389 7.69401 0.00218539 6.46437 0.00218539H1.65123C0.274473 0.00218539 0 0.646615 0 1.35439C0 2.62578 1.63146 8.91716 7.59959 17.2379C11.5783 22.9198 17.1798 26 22.2828 26C25.3415 26 25.7192 25.3162 25.7192 24.1366V19.8419C25.7192 18.4744 26.0112 18.1991 26.9795 18.1991C27.691 18.1991 28.9162 18.5574 31.7729 21.2946C35.0359 24.5407 35.576 25.9978 37.4095 25.9978H42.2226C43.5972 25.9978 44.2845 25.3141 43.8892 23.964C43.4567 22.6206 41.8977 20.6654 39.8292 18.352C38.705 17.0326 37.0252 15.6127 36.5136 14.9027C35.8 13.9874 36.0064 13.5833 36.5136 12.7706C36.5158 12.7728 42.3807 4.5547 42.9912 1.76071Z" fill="black"/>
</svg>
